<svg xmlns="http://www.w3.org/2000/svg" width="433.027" height="77.664" viewBox="0 0 433.027 77.664">
  <g id="Group_1" data-name="Group 1" transform="translate(-707.688 -642.104)">
    <path id="Path_3" data-name="Path 3" d="M56.448-27.648a41.906,41.906,0,0,1-.288,4.8H19.008q.384,4.992,3.216,7.632a9.825,9.825,0,0,0,6.96,2.64q6.144,0,8.544-5.184H55.2a23.976,23.976,0,0,1-4.848,9.5,24.272,24.272,0,0,1-8.784,6.624A28.215,28.215,0,0,1,29.76.768a28.732,28.732,0,0,1-14.016-3.36,23.9,23.9,0,0,1-9.6-9.6A29.638,29.638,0,0,1,2.688-26.784,29.975,29.975,0,0,1,6.1-41.376a23.589,23.589,0,0,1,9.552-9.6,28.935,28.935,0,0,1,14.112-3.36,28.645,28.645,0,0,1,13.824,3.264A23.437,23.437,0,0,1,53.04-41.76,28.265,28.265,0,0,1,56.448-27.648Zm-16.8-4.32a8.44,8.44,0,0,0-2.88-6.72,10.6,10.6,0,0,0-7.2-2.5,10.4,10.4,0,0,0-6.96,2.4,10.66,10.66,0,0,0-3.5,6.816ZM60.384-26.88a32.016,32.016,0,0,1,3.12-14.5,23.273,23.273,0,0,1,8.5-9.6,22.18,22.18,0,0,1,12-3.36,20.614,20.614,0,0,1,9.936,2.3,16.972,16.972,0,0,1,6.576,6.048v-7.584h16.416V0H100.512V-7.584A17.727,17.727,0,0,1,93.84-1.536,20.615,20.615,0,0,1,83.9.768,21.781,21.781,0,0,1,72-2.64a23.55,23.55,0,0,1-8.5-9.7A32.319,32.319,0,0,1,60.384-26.88Zm40.128.1q0-6.144-3.408-9.7a11.073,11.073,0,0,0-8.3-3.552,11.145,11.145,0,0,0-8.3,3.5q-3.408,3.5-3.408,9.648T80.5-17.136a11,11,0,0,0,8.3,3.6,11.073,11.073,0,0,0,8.3-3.552Q100.512-20.64,100.512-26.784Zm43.3-17.856a21.656,21.656,0,0,1,7.2-6.96,18.566,18.566,0,0,1,9.6-2.544v17.376H156.1q-6.144,0-9.216,2.64t-3.072,9.264V0H127.392V-53.568h16.416ZM196.9-13.92V0h-8.352q-8.928,0-13.92-4.368t-4.992-14.256V-39.936H163.1V-53.568h6.528V-66.624h16.416v13.056H196.8v13.632H186.048v21.5a4.5,4.5,0,0,0,1.152,3.456,5.623,5.623,0,0,0,3.84,1.056ZM237.5-54.144q9.216,0,14.784,6.1T257.856-31.3V0h-16.32V-29.088q0-5.376-2.784-8.352a9.762,9.762,0,0,0-7.488-2.976,9.762,9.762,0,0,0-7.488,2.976q-2.784,2.976-2.784,8.352V0H204.576V-71.04h16.416v24.672a17.546,17.546,0,0,1,6.816-5.664A21.784,21.784,0,0,1,237.5-54.144Z" transform="translate(705 719)" fill="#e33945"/>
    <path id="Path_4" data-name="Path 4" d="M22.368-71.04V0H5.952V-71.04Zm18.72,11.9a9.95,9.95,0,0,1-7.056-2.544A8.243,8.243,0,0,1,31.3-67.968a8.351,8.351,0,0,1,2.736-6.384A9.95,9.95,0,0,1,41.088-76.9a9.819,9.819,0,0,1,6.96,2.544,8.351,8.351,0,0,1,2.736,6.384,8.243,8.243,0,0,1-2.736,6.288A9.819,9.819,0,0,1,41.088-59.136Zm8.16,5.568V0H32.832V-53.568Zm43.1-.576q9.408,0,15.024,6.1T112.992-31.3V0H96.672V-29.088q0-5.376-2.784-8.352A9.762,9.762,0,0,0,86.4-40.416a9.762,9.762,0,0,0-7.488,2.976q-2.784,2.976-2.784,8.352V0H59.712V-53.568H76.128v7.1a17.319,17.319,0,0,1,6.72-5.616A21.364,21.364,0,0,1,92.352-54.144ZM152.363,0l-16.32-22.464V0H119.627V-71.04h16.416v39.264l16.224-21.792h20.256l-22.272,26.88L172.715,0Z" transform="translate(968 719)" fill="#fff"/>
  </g>
</svg>
