<?xml version="1.0" encoding="UTF-8"?>
<svg  viewBox="0 0 72 72" version="1.1" xmlns="http://www.w3.org/2000/svg" xmlns:xlink="http://www.w3.org/1999/xlink">
    <!-- Generator: Sketch 49.2 (51160) - http://www.bohemiancoding.com/sketch -->
    <title>GooglePlus</title>
    <desc>Created with Sketch.</desc>
    <defs></defs>
    <g id="Page-1" stroke="none" stroke-width="1" fill="none" fill-rule="evenodd">
        <g id="Social-Icons---Squared-Black" transform="translate(-376.000000, -43.000000)">
            <g id="GooglePlus" transform="translate(376.000000, 43.000000)">
                <polygon id="Square" fill="#000000" points="0 72 72 72 72 0 0 0"></polygon>
                <path d="M54.7169811,33.5508551 L54.7169811,28.2583258 L50.9433962,28.2583258 L50.9433962,33.5508551 L45.509434,33.5508551 L45.509434,37.3312331 L50.9433962,37.3312331 L50.9433962,42.7749775 L54.7169811,42.7749775 L54.7169811,37.3312331 L60,37.3312331 L60,33.5508551 L54.7169811,33.5508551 L54.7169811,33.5508551 Z M27.245283,33.2484248 L27.245283,39.2970297 C27.245283,39.2970297 33.1024906,39.2891665 35.4873962,39.2891665 C34.1959245,43.2103258 32.1877736,45.3456346 27.245283,45.3456346 C22.2434717,45.3456346 18.3396226,41.2835428 18.3396226,36.2727273 C18.3396226,31.2619118 22.2434717,27.19982 27.245283,27.19982 C29.8898113,27.19982 31.5977358,28.1310027 33.1643774,29.4288821 C34.4184151,28.1725869 34.3136604,27.9935482 37.5041509,24.9751431 C34.7957736,22.5054977 31.1960755,21 27.245283,21 C18.8255094,21 12,27.8377966 12,36.2727273 C12,44.7075068 18.8255094,51.5454545 27.245283,51.5454545 C39.8304906,51.5454545 42.906566,40.5672367 41.8867925,33.2484248 L27.245283,33.2484248 L27.245283,33.2484248 Z" fill="#FFFFFF"></path>
            </g>
        </g>
    </g>
</svg>