<?xml version="1.0" encoding="UTF-8"?>
<svg  viewBox="0 0 72 72" version="1.1" xmlns="http://www.w3.org/2000/svg" xmlns:xlink="http://www.w3.org/1999/xlink">
    <!-- Generator: Sketch 49.2 (51160) - http://www.bohemiancoding.com/sketch -->
    <title>Instagram</title>
    <desc>Created with Sketch.</desc>
    <defs></defs>
    <g id="Page-1" stroke="none" stroke-width="1" fill="none" fill-rule="evenodd">
        <g id="Social-Icons---Squared-Black" transform="translate(-488.000000, -43.000000)">
            <g id="Instagram" transform="translate(488.000000, 43.000000)">
                <polygon id="Square" fill="#000000" points="0 72 72 72 72 0 0 0"></polygon>
                <path d="M36.0000476,12 C42.5180087,12 43.3353141,12.0276278 45.8951693,12.1444265 C48.4496895,12.2609395 50.1943351,12.6666865 51.720912,13.2600166 C53.2991241,13.8732576 54.6375464,14.6938975 55.9718721,16.0281279 C57.3061025,17.3624536 58.1267424,18.7008759 58.7400787,20.279088 C59.3333135,21.8056649 59.7390605,23.5503105 59.8555735,26.1048307 C59.9723722,28.6646859 60,29.4819913 60,36.0000476 C60,42.5180087 59.9723722,43.3353141 59.8555735,45.8951693 C59.7390605,48.4496895 59.3333135,50.1943351 58.7400787,51.720912 C58.1267424,53.2991241 57.3061025,54.6375464 55.9718721,55.9718721 C54.6375464,57.3061025 53.2991241,58.1267424 51.720912,58.7400787 C50.1943351,59.3333135 48.4496895,59.7390605 45.8951693,59.8555735 C43.3353141,59.9723722 42.5180087,60 36.0000476,60 C29.4819913,60 28.6646859,59.9723722 26.1048307,59.8555735 C23.5503105,59.7390605 21.8056649,59.3333135 20.279088,58.7400787 C18.7008759,58.1267424 17.3624536,57.3061025 16.0281279,55.9718721 C14.6938975,54.6375464 13.8732576,53.2991241 13.2600166,51.720912 C12.6666865,50.1943351 12.2609395,48.4496895 12.1444265,45.8951693 C12.0276278,43.3353141 12,42.5180087 12,36.0000476 C12,29.4819913 12.0276278,28.6646859 12.1444265,26.1048307 C12.2609395,23.5503105 12.6666865,21.8056649 13.2600166,20.279088 C13.8732576,18.7008759 14.6938975,17.3624536 16.0281279,16.0281279 C17.3624536,14.6938975 18.7008759,13.8732576 20.279088,13.2600166 C21.8056649,12.6666865 23.5503105,12.2609395 26.1048307,12.1444265 C28.6646859,12.0276278 29.4819913,12 36.0000476,12 Z M36.0000476,16.3243166 C29.5917403,16.3243166 28.8326436,16.3488005 26.3019405,16.4642655 C23.9619642,16.5709658 22.6911823,16.9619463 21.845487,17.2906214 C20.7252288,17.7259969 19.9257385,18.2460657 19.0859497,19.0859497 C18.2460657,19.9257385 17.7259969,20.7252288 17.2906214,21.845487 C16.9619463,22.6911823 16.5709658,23.9619642 16.4642655,26.3019405 C16.3488005,28.8326436 16.3243166,29.5917403 16.3243166,36.0000476 C16.3243166,42.4082597 16.3488005,43.1673564 16.4642655,45.6980595 C16.5709658,48.0380358 16.9619463,49.3088177 17.2906214,50.154513 C17.7259969,51.2747712 18.246161,52.0742615 19.0859497,52.9140503 C19.9257385,53.7539343 20.7252288,54.2740031 21.845487,54.7093786 C22.6911823,55.0380537 23.9619642,55.4290342 26.3019405,55.5357345 C28.8323578,55.6511995 29.5912639,55.6756834 36.0000476,55.6756834 C42.4087361,55.6756834 43.1677374,55.6511995 45.6980595,55.5357345 C48.0380358,55.4290342 49.3088177,55.0380537 50.154513,54.7093786 C51.2747712,54.2740031 52.0742615,53.7539343 52.9140503,52.9140503 C53.7539343,52.0742615 54.2740031,51.2747712 54.7093786,50.154513 C55.0380537,49.3088177 55.4290342,48.0380358 55.5357345,45.6980595 C55.6511995,43.1673564 55.6756834,42.4082597 55.6756834,36.0000476 C55.6756834,29.5917403 55.6511995,28.8326436 55.5357345,26.3019405 C55.4290342,23.9619642 55.0380537,22.6911823 54.7093786,21.845487 C54.2740031,20.7252288 53.7539343,19.9257385 52.9140503,19.0859497 C52.0742615,18.2460657 51.2747712,17.7259969 50.154513,17.2906214 C49.3088177,16.9619463 48.0380358,16.5709658 45.6980595,16.4642655 C43.1673564,16.3488005 42.4082597,16.3243166 36.0000476,16.3243166 Z M36.0000476,23.6756834 C42.8065759,23.6756834 48.3243166,29.1934241 48.3243166,36.0000476 C48.3243166,42.8065759 42.8065759,48.3243166 36.0000476,48.3243166 C29.1934241,48.3243166 23.6756834,42.8065759 23.6756834,36.0000476 C23.6756834,29.1934241 29.1934241,23.6756834 36.0000476,23.6756834 Z M36.0000476,44 C40.4182986,44 44,40.4182986 44,36.0000476 C44,31.5817014 40.4182986,28 36.0000476,28 C31.5817014,28 28,31.5817014 28,36.0000476 C28,40.4182986 31.5817014,44 36.0000476,44 Z M51.6912836,23.1887679 C51.6912836,24.7793649 50.4018291,26.0687241 48.8112321,26.0687241 C47.2207303,26.0687241 45.9312759,24.7793649 45.9312759,23.1887679 C45.9312759,21.5981709 47.2207303,20.3087164 48.8112321,20.3087164 C50.4018291,20.3087164 51.6912836,21.5981709 51.6912836,23.1887679 Z" fill="#FFFFFF"></path>
            </g>
        </g>
    </g>
</svg>