<!DOCTYPE svg PUBLIC "-//W3C//DTD SVG 1.1//EN" "http://www.w3.org/Graphics/SVG/1.1/DTD/svg11.dtd">
<!-- Uploaded to: SVG Repo, www.svgrepo.com, Transformed by: SVG Repo Mixer Tools -->
<svg fill="#ffffff" width="800px" height="800px" viewBox="-25.6 -25.6 307.20 307.20" id="Flat" xmlns="http://www.w3.org/2000/svg" stroke="#ffffff">
<g id="SVGRepo_bgCarrier" stroke-width="0">
<rect x="-25.6" y="-25.6" width="307.20" height="307.20" rx="0" fill="#000000" strokewidth="0"/>
</g>
<g id="SVGRepo_tracerCarrier" stroke-linecap="round" stroke-linejoin="round"/>
<g id="SVGRepo_iconCarrier"> <path d="M232,84v40a7.99977,7.99977,0,0,1-8,8,103.32406,103.32406,0,0,1-48.00049-11.70752L176,156A76,76,0,1,1,86.59766,81.17971,7.99952,7.99952,0,0,1,96,89.05569l-.00049,41.63916a7.99971,7.99971,0,0,1-4.56689,7.22607A20.00272,20.00272,0,1,0,120,156V28a7.99977,7.99977,0,0,1,8-8h40a7.99977,7.99977,0,0,1,8,8,48.05436,48.05436,0,0,0,48,48A7.99977,7.99977,0,0,1,232,84Z"/> </g>
</svg>